<svg xmlns="http://www.w3.org/2000/svg" viewBox="0 0 32 32" width="32" height="32">
  <!-- Chef hat pixel art favicon -->
  <!-- Row 0: tuft -->
  <rect x="12" y="0" width="4" height="4" fill="#FFFFFF"/>
  <rect x="16" y="0" width="4" height="4" fill="#FFFFFF"/>
  <!-- Row 1: puff top -->
  <rect x="8" y="4" width="4" height="4" fill="#FFFFFF"/>
  <rect x="12" y="4" width="4" height="4" fill="#FFFFFF"/>
  <rect x="16" y="4" width="4" height="4" fill="#FFFFFF"/>
  <rect x="20" y="4" width="4" height="4" fill="#FFFFFF"/>
  <!-- Row 2: puff mid -->
  <rect x="4" y="8" width="4" height="4" fill="#FFFFFF"/>
  <rect x="8" y="8" width="4" height="4" fill="#FFFFFF"/>
  <rect x="12" y="8" width="4" height="4" fill="#FFFFFF"/>
  <rect x="16" y="8" width="4" height="4" fill="#FFFFFF"/>
  <rect x="20" y="8" width="4" height="4" fill="#FFFFFF"/>
  <rect x="24" y="8" width="4" height="4" fill="#FFFFFF"/>
  <!-- Row 3: puff wide -->
  <rect x="0" y="12" width="4" height="4" fill="#FFFFFF"/>
  <rect x="4" y="12" width="4" height="4" fill="#E8E8E8"/>
  <rect x="8" y="12" width="4" height="4" fill="#FFFFFF"/>
  <rect x="12" y="12" width="4" height="4" fill="#FFFFFF"/>
  <rect x="16" y="12" width="4" height="4" fill="#FFFFFF"/>
  <rect x="20" y="12" width="4" height="4" fill="#FFFFFF"/>
  <rect x="24" y="12" width="4" height="4" fill="#E8E8E8"/>
  <rect x="28" y="12" width="4" height="4" fill="#FFFFFF"/>
  <!-- Row 4: band top -->
  <rect x="0" y="16" width="4" height="4" fill="#FF6B35"/>
  <rect x="4" y="16" width="4" height="4" fill="#FF6B35"/>
  <rect x="8" y="16" width="4" height="4" fill="#FF6B35"/>
  <rect x="12" y="16" width="4" height="4" fill="#FF6B35"/>
  <rect x="16" y="16" width="4" height="4" fill="#FF6B35"/>
  <rect x="20" y="16" width="4" height="4" fill="#FF6B35"/>
  <rect x="24" y="16" width="4" height="4" fill="#FF6B35"/>
  <rect x="28" y="16" width="4" height="4" fill="#FF6B35"/>
  <!-- Row 5: band detail -->
  <rect x="4" y="20" width="4" height="4" fill="#FF6B35"/>
  <rect x="8" y="20" width="4" height="4" fill="#CC5529"/>
  <rect x="12" y="20" width="4" height="4" fill="#FF6B35"/>
  <rect x="16" y="20" width="4" height="4" fill="#FF6B35"/>
  <rect x="20" y="20" width="4" height="4" fill="#CC5529"/>
  <rect x="24" y="20" width="4" height="4" fill="#FF6B35"/>
  <!-- Row 6: band bottom -->
  <rect x="8" y="24" width="4" height="4" fill="#FF6B35"/>
  <rect x="12" y="24" width="4" height="4" fill="#FF6B35"/>
  <rect x="16" y="24" width="4" height="4" fill="#FF6B35"/>
  <rect x="20" y="24" width="4" height="4" fill="#FF6B35"/>
  <!-- Row 7: base -->
  <rect x="12" y="28" width="4" height="4" fill="#FF6B35"/>
  <rect x="16" y="28" width="4" height="4" fill="#FF6B35"/>
  <!-- Sparkle accent -->
  <rect x="28" y="0" width="4" height="4" fill="#4ade80" opacity="0.9"/>
</svg>
